
<svg width="5px" height="14px" viewBox="0 0 5 14" version="1.1" xmlns="http://www.w3.org/2000/svg" xmlns:xlink="http://www.w3.org/1999/xlink">
    <!-- Generator: Sketch 50.2 (55047) - http://www.bohemiancoding.com/sketch -->
    <desc>Created with Sketch.</desc>
    <defs></defs>
    <g id="Roster-v1.4" stroke="none" stroke-width="1" fill="none" fill-rule="evenodd">
        <g id="Roster-Members-01" transform="translate(-154.000000, -224.000000)" fill="#97A4AB">
            <g id="70px-Table-+-70px-Table-+-70px-Table-+-70px-Table-Mask" transform="translate(0.000000, 208.000000)">
                <g id="70px-Table">
                    <g id="Left-Align-Columns-[0h-t}" transform="translate(11.000000, 0.000000)">
                        <g id="Column-1-[0v-r]" transform="translate(142.000000, 0.000000)">
                            <g id="smallhandles">
                                <path d="M2,18 C1.44771525,18 1,17.5522847 1,17 C1,16.4477153 1.44771525,16 2,16 C2.55228475,16 3,16.4477153 3,17 C3,17.5522847 2.55228475,18 2,18 Z M2,21 C1.44771525,21 1,20.5522847 1,20 C1,19.4477153 1.44771525,19 2,19 C2.55228475,19 3,19.4477153 3,20 C3,20.5522847 2.55228475,21 2,21 Z M2,24 C1.44771525,24 1,23.5522847 1,23 C1,22.4477153 1.44771525,22 2,22 C2.55228475,22 3,22.4477153 3,23 C3,23.5522847 2.55228475,24 2,24 Z M2,27 C1.44771525,27 1,26.5522847 1,26 C1,25.4477153 1.44771525,25 2,25 C2.55228475,25 3,25.4477153 3,26 C3,26.5522847 2.55228475,27 2,27 Z M2,30 C1.44771525,30 1,29.5522847 1,29 C1,28.4477153 1.44771525,28 2,28 C2.55228475,28 3,28.4477153 3,29 C3,29.5522847 2.55228475,30 2,30 Z M5,18 C4.44771525,18 4,17.5522847 4,17 C4,16.4477153 4.44771525,16 5,16 C5.55228475,16 6,16.4477153 6,17 C6,17.5522847 5.55228475,18 5,18 Z M5,21 C4.44771525,21 4,20.5522847 4,20 C4,19.4477153 4.44771525,19 5,19 C5.55228475,19 6,19.4477153 6,20 C6,20.5522847 5.55228475,21 5,21 Z M5,24 C4.44771525,24 4,23.5522847 4,23 C4,22.4477153 4.44771525,22 5,22 C5.55228475,22 6,22.4477153 6,23 C6,23.5522847 5.55228475,24 5,24 Z M5,27 C4.44771525,27 4,26.5522847 4,26 C4,25.4477153 4.44771525,25 5,25 C5.55228475,25 6,25.4477153 6,26 C6,26.5522847 5.55228475,27 5,27 Z M5,30 C4.44771525,30 4,29.5522847 4,29 C4,28.4477153 4.44771525,28 5,28 C5.55228475,28 6,28.4477153 6,29 C6,29.5522847 5.55228475,30 5,30 Z" id="Combined-Shape"></path>
                            </g>
                        </g>
                    </g>
                </g>
            </g>
        </g>
    </g>
</svg>
