<?xml version="1.0" standalone="no"?>
<!DOCTYPE svg PUBLIC "-//W3C//DTD SVG 1.1//EN" "http://www.w3.org/Graphics/SVG/1.1/DTD/svg11.dtd" >
<svg xmlns="http://www.w3.org/2000/svg">
<metadata>Generated by IcoMoon</metadata>
<defs>
<font id="cm-icons-newui" horiz-adv-x="1024">
<font-face units-per-em="1024" ascent="960" descent="-64" />
<missing-glyph horiz-adv-x="1024" />
<glyph unicode="&#x20;" horiz-adv-x="512" d="" />
<glyph unicode="&#xe900;" glyph-name="paperclip" horiz-adv-x="928" d="M120.217 54.445c-196.556 194.114-134.671 508.115 59.944 703.419l115.316 105.669c148.075 146.259 365.714 109.694 473.665 0 79.962-78.219 85.438-320.829-62.638-467.025l-115.441-105.669c-99.218-94.332-158.415-171.289-292.079-59.819-138.894 115.832-76.256 241.107 60.132 350.081l151.019 142.751 89.384-88.382-151.27-142.438c-49.358-48.732-162.884-146.18-62.638-176.638 25.029-32.18 66.772 13.906 116.13 62.637l115.378 105.607c0.752 1.065 1.879 1.816 2.819 2.693 98.717 97.589 131.711 222.118 41.252 297.982-84.023 70.107-174.732 90.057-273.512-7.47-0.94-0.94-1.629-1.942-2.568-2.944l-115.566-105.419c-148.138-146.196-210.775-383.341-62.638-529.725 148.075-146.259 325.527-83.684 473.665 62.637l147.207 181.397 82.838-87.621-140.724-182.094c-197.872-191.921-453.12-253.682-649.676-59.631z" />
<glyph unicode="&#xe901;" glyph-name="award" horiz-adv-x="864" d="M173.659 460.153l-173.659 390.044 244.812 108.997 180.12-404.555c-2.327 0.044-4.66 0.066-6.998 0.066-94.089 0-179.812-35.814-244.276-94.552zM674.4 448.519l178.839 401.678-246.622 109.803-116.135-260.843 79.048-177.544c39.238-18.070 74.698-42.938 104.871-73.095zM417.934-64c-141.407 0-256.039 114.614-256.039 255.998s114.633 255.998 256.039 255.998c141.407 0 256.039-114.614 256.039-255.998s-114.633-255.998-256.039-255.998z" />
<glyph unicode="&#xe902;" glyph-name="archive" d="M64 704.096c0 35.293 28.797 63.904 63.72 63.904h768.56c35.191 0 63.72-28.639 63.72-63.904v-704.192c0-35.293-28.797-63.904-63.72-63.904h-768.56c-35.191 0-63.72 28.639-63.72 63.904v704.192zM320 704c0-35.593 28.776-64 64.273-64h255.454c35.411 0 64.273 28.654 64.273 64 0 35.593-28.776 64-64.273 64h-255.454c-35.411 0-64.273-28.654-64.273-64zM0 896.067c0 35.309 28.456 63.933 64.056 63.933h895.888c35.377 0 64.056-28.744 64.056-63.933v-64.134c0-35.309-28.456-63.933-64.056-63.933h-895.888c-35.377 0-64.056 28.744-64.056 63.933v64.134z" />
<glyph unicode="&#xe903;" glyph-name="book-open" d="M746.617 4.296v0c148.026 0 277.315-68.296 277.383-68.296v955.704c0 0-124.612 68.296-270.932 68.296-125.090 0-241.068-68.296-241.068-68.296s-115.977 68.296-241.068 68.296c-146.32 0-270.932-68.296-270.932-68.296v-955.704c0 0 129.288 68.296 277.315 68.296 122.599 0 234.651-68.296 234.651-68.296s112.052 68.296 234.651 68.296zM485.053 906.105h53.895v-970.105h-53.895v970.105zM648.49 277.311c0 0 64.064 34.199 130.142 34.199 70.344 0 108.81-34.199 108.81-34.199v-68.262c0 0-34.131 34.165-102.393 34.165s-136.524-34.165-136.524-34.165v68.262h-0.034zM648.49 413.869v68.262c0 0 64.064 34.131 130.142 34.131 70.344 0 108.81-34.131 108.81-34.131v-68.262c0 0-34.131 34.131-102.393 34.131-68.296 0-136.558-34.131-136.558-34.131v0zM648.49 618.621v68.33c0 0 64.064 34.097 130.142 34.097 70.344 0 108.81-34.097 108.81-34.097v-68.33c0 0-34.131 34.165-102.393 34.165-68.296 0-136.558-34.165-136.558-34.165v0zM136.524 209.048v68.262c0 0 29.933 34.199 96.011 34.199 70.344 0 142.941-34.199 142.941-34.199v-68.262c0 0-68.262 34.165-136.524 34.165-68.296 0-102.427-34.165-102.427-34.165v0zM136.524 413.869v68.262c0 0 29.933 34.131 96.011 34.131 70.344 0 142.941-34.131 142.941-34.131v-68.262c0 0-68.262 34.131-136.524 34.131-68.296 0-102.427-34.131-102.427-34.131v0zM136.524 618.621v68.33c0 0 29.933 34.097 96.011 34.097 70.344 0 142.941-34.097 142.941-34.097v-68.33c0 0-68.262 34.165-136.524 34.165-68.296 0-102.427-34.165-102.427-34.165v0z" />
<glyph unicode="&#xe904;" glyph-name="calendar" d="M896 832h0.381c70.483 0 127.62-57.412 127.62-128.375v-639.25c0-70.9-57.249-128.375-127.62-128.375h-768.76c-70.483 0-127.62 57.412-127.62 128.375v639.25c0 70.9 57.249 128.375 127.62 128.375h0.381v-63.687c0-71.103 57.308-128.312 128-128.312 71.185 0 128 57.447 128 128.312v63.687h256.001v-63.687c0-71.103 57.308-128.312 128-128.312 71.185 0 128 57.447 128 128.312v63.687zM192 895.4c0 35.677 28.407 64.6 64 64.6 35.346 0 64-28.375 64-64.6v-126.801c0-35.677-28.407-64.6-64-64.6-35.346 0-64 28.375-64 64.6v126.801zM704 895.4c0 35.677 28.407 64.6 64 64.6 35.346 0 64-28.375 64-64.6v-126.801c0-35.677-28.407-64.6-64-64.6-35.346 0-64 28.375-64 64.6v126.801z" />
<glyph unicode="&#xe905;" glyph-name="check-square" d="M0 895.944c0 35.377 28.456 64.056 64.056 64.056h895.888c35.377 0 64.056-28.456 64.056-64.056v-895.888c0-35.377-28.456-64.056-64.056-64.056h-895.888c-35.377 0-64.056 28.456-64.056 64.056v895.888zM312.313 414.732c-12.59 12.59-32.951 12.642-45.594 0l-42.929-42.929c-12.59-12.59-12.771-32.823-0.374-45.22l132.199-132.199c12.384-12.384 32.635-12.211 45.222 0.376l367.508 367.508c12.591 12.591 12.644 32.953 0.002 45.596l-42.929 42.929c-12.59 12.59-32.867 12.727-45.621-0.027l-301.759-301.759-65.726 65.726z" />
<glyph unicode="&#xe906;" glyph-name="feet" d="M209.004 959.917c116.675-4.99 177.17-72.964 180.064-220.855s-115.415-191.573-109.325-293.69c6.090-102.117 39.482-96.072 41.801-164.466-0.231-19.945-10.785-129.517-122.186-131.573-151.215 3.759-145.37 125.464-144.694 126.874 15.73 141.103-22.508 209.107-22.508 209.107s-32.283 86.462-32.154 176.214c11.55 311.753 209.003 298.389 209.003 298.389zM814.996 746.583c0 0 197.453 13.364 209.003-298.389 0.129-89.752-32.154-176.214-32.154-176.214s-38.238-68.004-22.508-209.107c0.675-1.41 6.521-123.115-144.694-126.874-111.402 2.056-121.955 111.628-122.186 131.573 2.318 68.394 35.711 62.349 41.801 164.466s-112.219 145.799-109.325 293.69c2.894 147.89 63.389 215.864 180.064 220.855z" />
<glyph unicode="&#xe907;" glyph-name="pencil" d="M371.269 127.877l508.31 508.14-179.395 179.395-99.918-100.047-408.381-408.103 179.385-179.385zM278.953 35.637l-54.714-54.669-224.238-44.968 44.864 224.341 54.711 54.674 179.378-179.378zM963.869 720.45l23.033 23.072c49.464 49.474 49.464 129.941 0 179.373-49.422 49.474-129.91 49.474-179.374 0l-23.037-23.067 179.378-179.378z" />
<glyph unicode="&#xe908;" glyph-name="file" horiz-adv-x="832" d="M832 512v192.19-640.57c0-70.483-57.187-127.62-128.177-127.62h-575.647c-70.79 0-128.177 57.249-128.177 127.62v768.76c0 70.483 57.187 127.62 128.177 127.62h255.823v-362.68c0-47.124 38.199-85.32 85.32-85.32h362.68zM512 960l320-320h-277.506c-23.434 0-42.494 19.025-42.494 42.494v277.506z" />
<glyph unicode="&#xe909;" glyph-name="gift" d="M763.89 704h217.413c23.581 0 42.696-19.242 42.696-42.273v-171.454c0-23.347-19.092-42.273-42.696-42.273h-938.607c-23.581 0-42.696 19.242-42.696 42.273v171.454c0 23.347 19.092 42.273 42.696 42.273h239.884c-2.507 3.508-4.957 7.1-7.343 10.774-57.753 88.932-56.509 192.237 2.779 230.739s154.168-2.379 211.921-91.311c13.024-20.055 23.047-40.84 30.081-61.449 3.453 6.313 7.193 12.583 11.219 18.783 57.753 88.932 152.633 129.813 211.921 91.311 52.305-33.967 59.434-118.371 20.732-198.846v0zM85.333 448h853.333v-469.228c0-23.622-19.426-42.772-42.317-42.772h-768.699c-23.371 0-42.317 19.446-42.317 42.772v469.228zM472.067 698.457c33.67 21.866 35.796 78.349 4.748 126.159s-83.513 68.842-117.183 46.976c-33.67-21.866-35.796-78.349-4.748-126.159s83.513-68.842 117.183-46.976zM615.632 698.457c33.67-21.866 86.135-0.834 117.183 46.976s28.922 104.293-4.748 126.159c-33.67 21.866-86.135 0.834-117.183-46.976s-28.922-104.293 4.748-126.159z" />
<glyph unicode="&#xe90a;" glyph-name="hand-stop" horiz-adv-x="704" d="M551.068 302.17c-0.049-0.089 0 225.663 0 225.663s-0.038 58.119 66.668 58.083c64.818-0.083 64.818-58.151 64.93-58.083 0-0.175-0.112-355.464 0-355.526-2.029 0.639-0.112-236.308-356.412-236.308-325.52 0-326.254 219.277-326.254 219.277v632.283c0 0 0 46.883 49.349 46.836 52.091 0 52.195-46.67 52.091-46.836 0.274-0.111 0-295.917 0-295.917h24.675v374.686c0 0 0.107 47.866 55.4 47.947 52.82 0 54.58-47.922 54.265-47.947 0.115 0.143 0-336.366 0-336.366h27.416v378.944c0 0 0.622 51.002 65.799 51.094 63.557-0.279 63.195-51.155 63.058-51.094-0.069-0.258 0-376.815 0-376.815h24.675v317.206c0 0 0.038 46.238 56.332 46.263 56.138-0.083 56.138-46.216 56.075-46.263 0.063-0.681 0-547.127 0-547.127z" />
<glyph unicode="&#xe90b;" glyph-name="heart" d="M511.981-64c40.368 44.196 270.936 296.436 415.068 453.925 129.137 141.211 126.37 346.992 8.97 474.621-117.446 127.734-307.189 127.203-424.037-1.186-116.841 128.386-306.579 128.917-424.018 1.186-117.401-127.629-120.118-333.41 8.969-474.621 144.142-157.488 374.681-409.729 415.048-453.925z" />
<glyph unicode="&#xe90c;" glyph-name="cloud-upload" d="M682.667 174.743h28.444c111.047 9.264 199.111 104.393 199.111 221.852 0 118.432-89.486 214.332-201.899 220.623-13.426 100.79-95.716 178.677-196.324 178.677-109.966 0-199.111-92.67-199.111-207.070-109.966 0-199.111-92.67-199.111-207.013 0-114.372 89.145-207.041 227.556-207.041v-116.048c-169.842 0-341.333 113.721-341.333 323.117 0 128.639 56.889 245.714 204.345 317.685 80.1 155.585 184.007 212.474 307.655 212.474 113.664 0 227.556-56.889 299.207-184.138 99.015-43.417 212.793-214.084 212.793-331.209 0-224.208-192.114-337.986-341.333-337.986v116.076zM644.821 359.268l-75.833 75.89-0.1-376.491c0 0 0-56.889-56.889-56.889s-56.889 56.889-56.889 56.889l0.043 376.491-75.89-75.89c-21.675-21.675-56.889-21.675-78.564 0-21.675 21.732-21.675 56.889 0 78.62l165.433 165.433c1.82 2.674 2.901 5.689 5.234 8.021 0.796 0.796 2.048 0.455 2.901 1.195 9.387 8.42 21.39 13.653 34.759 14.393 2.446 0.455 2.674 0.626 3.015 0.626 1.877-0.171 2.674-0.91 3.812-1.024 11.264-0.853 20.878-5.404 29.241-12.060 2.332-1.65 5.575-1.081 7.623-3.129 2.389-2.446 3.584-5.461 5.404-8.135l165.262-165.319c21.732-21.732 21.732-56.889 0-78.62-21.675-21.675-56.832-21.675-78.564 0z" />
<glyph unicode="&#xe90d;" glyph-name="history" d="M99.077 541.092h216.738l94.401-199.355-241.487-151.446c83.842-123.978 226.385-205.56 388.139-205.56 257.974 0 467.133 207.557 467.133 463.649 0 256.034-209.159 463.62-467.133 463.62-226.009 0-414.514-159.293-457.79-370.908zM225.178 541.092c40.725 143.762 173.804 249.204 331.689 249.204 190.243 0 344.51-153.131 344.51-341.919 0-188.837-154.267-341.943-344.51-341.943-118.109 0-222.335 58.996-284.404 148.914l137.752 86.389-94.401 199.355h-90.636zM17.252 473.116c-31.321 34.982-18.791 63.341 27.836 63.341h211.866c46.694 0 59.289-28.202 27.791-63.371l-100.454-112.161c-1.319-1.923-2.103-4.092-3.793-5.769-0.577-0.573-1.484-0.327-2.103-0.859-6.802-6.056-15.501-9.82-25.189-10.352-1.773-0.327-1.938-0.45-2.185-0.45-1.36 0.123-1.938 0.655-2.762 0.736-8.163 0.614-15.13 3.887-21.19 8.674-1.69 1.187-4.040 0.777-5.524 2.25-1.732 1.759-2.597 3.928-3.917 5.851l-100.375 112.108zM530.278 402.002h-7.853v278.181h94.258v-242.606l119.536-93.392-58.031-74.277-155.932 121.827 8.022 10.267z" />
<glyph unicode="&#xe90e;" glyph-name="ministry" horiz-adv-x="672" d="M206.374 35.27c-2.246-0.284-4.457-0.456-6.652-0.568 124.169 112.484 269.739 288.059 347.485 536.544-0.155-1.144-110.66-279.841-395.070-524.368v0c-40.604-40.149-84.151-77.208-130.279-110.866 0 0-29.506-1.471-19.955 28.121 45.659 30.274 89.449 63.276 131.131 98.828-89.87 97.752-50.528 421.384 246.239 544.693 195.229 81.093 237.737 352.347 237.737 352.347s274.059-803.056-410.636-924.73v0z" />
<glyph unicode="&#xe90f;" glyph-name="note" horiz-adv-x="864" d="M597.457-64h-469.704c-70.438 0-127.753 57.137-127.753 127.62v768.76c0 70.371 57.197 127.62 127.753 127.62h597.828c70.438 0 127.753-57.137 127.753-127.62v-533.713h-298.778c-47.067 0-85.222-38.126-85.222-85.029v-277.637h128.124zM568.889-64v234.608c0 23.597 19.105 42.726 42.584 42.726h241.86l-284.444-277.333zM87.521 744.448c0-23.564 19.466-42.667 42.718-42.667h395.931c23.593 0 42.718 18.938 42.718 42.667 0 23.564-19.466 42.667-42.718 42.667h-395.931c-23.593 0-42.718-18.938-42.718-42.667zM87.521 573.781c0-23.564 18.91-42.667 42.567-42.667h595.345c23.509 0 42.567 18.938 42.567 42.667 0 23.564-18.91 42.667-42.567 42.667h-595.345c-23.509 0-42.567-18.938-42.567-42.667zM87.521 403.115c0-23.564 19.018-42.667 42.435-42.667h467.609c23.436 0 42.435 18.938 42.435 42.667 0 23.564-19.018 42.667-42.435 42.667h-467.609c-23.436 0-42.435-18.938-42.435-42.667zM87.521 232.448c0-23.564 19.077-42.667 43.056-42.667h167.7c23.779 0 43.056 18.938 43.056 42.667 0 23.564-19.077 42.667-43.056 42.667h-167.7c-23.779 0-43.056-18.938-43.056-42.667z" />
<glyph unicode="&#xe910;" glyph-name="send" d="M847.958 26.667l-289.233 183.572c0 0-85.312-83.462-128.627-124.431-9.639-10.788-24.43-15.434-38.524-12.101s-25.222 14.109-28.983 28.066l-93.156 280.757-269.435 113.605 1024 383.864-176.042-853.333zM340.066 420.833l57.997-146.872 32.244 54.337 572.262 529.584-662.502-437.049z" />
<glyph unicode="&#xe911;" glyph-name="shield" d="M31.992 848.884c173.717 78.435 480.009 111.116 480.009 111.116s306.289-32.68 480.006-111.116c0 0 217.148-396.528-480.006-912.884-697.154 516.357-480.009 912.884-480.009 912.884zM128 780.8c0 0-102.4-307.2 384-716.8 486.4 409.6 384 716.8 384 716.8-204.8 51.2-384.001 76.8-384 76.8-0.001 0-128-25.6-384-76.8zM204.8 704c0 0 307.199 51.2 307.2 51.2-0.001 0 307.2-51.2 307.2-51.2s-51.2-256-307.2-512c-256 256-307.2 512-307.2 512z" />
<glyph unicode="&#xe912;" glyph-name="star" d="M512.001 173.059l-282.507-216.17c-27.94-21.379-41.988-11.093-31.555 22.404l109.038 350.074-283.22 215.139c-28.011 21.277-22.382 38.475 13.244 38.41l348.289-0.635 107.878 350.47c10.401 33.791 27.344 33.535 37.666 0l107.878-350.47 348.289 0.635c35.325 0.064 41.009-17.319 13.244-38.41l-283.22-215.139 109.038-350.074c10.513-33.753-3.86-43.596-31.555-22.404l-282.507 216.17z" />
<glyph unicode="&#xe913;" glyph-name="user-alt" d="M26.96-64c-46.698 76.709-27.768 230.286 18.93 281.458 22.244 24.386 292.004 78.441 292.004 78.441 34.302 7.156 46.148 37.003 27.617 66.546 0 0-109.511 153.42-109.511 277.555 0 180.427 36.008 320 256 320 220.022 0 256-139.573 256-320 0-123.752-109.103-277.013-109.103-277.013-18.979-29.56-6.461-59.354 28.253-66.773 0 0 269.939-54.946 291.526-78.756 46.339-51.171 64.791-204.749 18.452-281.458h-970.168z" />
<glyph unicode="&#xe914;" glyph-name="chevron-wh-down" d="M15.256 597.523c-22.191 25.913-19.869 65.938 4.983 89.634l99.884 95.235c24.679 23.53 63.938 22.591 87.877-1.030l288-308.55 288 308.55c21.242 23.272 62.109 25.105 88.472 3.495l130.654-107.099c26.574-21.783 27.843-58.773 3.418-82.062l-422.778-447.474c-48.472-51.303-125.891-49.894-172.606 2.793l-395.903 446.508z" />
<glyph unicode="&#xe915;" glyph-name="chevron-wh-left" horiz-adv-x="704" d="M501.523 944.744c25.913 22.191 65.938 19.869 89.634-4.983l95.235-99.884c23.53-24.679 22.591-63.938-1.030-87.877l-308.55-288 308.55-288c23.272-21.242 25.105-62.109 3.495-88.472l-107.099-130.654c-21.783-26.574-58.773-27.843-82.062-3.418l-447.474 422.778c-51.303 48.472-49.894 125.891 2.793 172.606l446.508 395.903z" />
<glyph unicode="&#xe916;" glyph-name="chevron-wh-right" horiz-adv-x="704" d="M202.477-48.744c-25.913-22.191-65.938-19.869-89.634 4.983l-95.235 99.884c-23.53 24.679-22.591 63.938 1.030 87.877l308.55 288-308.55 288c-23.272 21.242-25.105 62.109-3.495 88.472l107.099 130.654c21.783 26.574 58.773 27.843 82.062 3.418l447.474-422.778c51.303-48.472 49.894-125.891-2.793-172.606l-446.508-395.903z" />
<glyph unicode="&#xe917;" glyph-name="chevron-wh-up" d="M1008.744 298.477c22.191-25.913 19.869-65.938-4.983-89.634l-99.884-95.235c-24.679-23.53-63.938-22.591-87.877 1.030l-288 308.55-288-308.55c-21.242-23.272-62.109-25.105-88.472-3.495l-130.654 107.099c-26.574 21.783-27.843 58.773-3.418 82.062l422.778 447.474c48.472 51.303 125.891 49.894 172.606-2.793l395.903-446.508z" />
<glyph unicode="&#xe918;" glyph-name="chevron-wl-down" d="M512 128c8.217-0.041 16.432 3.151 22.7 9.551l479.942 490.032c12.541 12.805 12.434 33.376-0.058 46.131l-82.933 84.676c-12.562 12.826-32.721 12.782-45.181 0.059l-374.47-382.342-374.47 382.342c-12.46 12.722-32.619 12.767-45.181-0.059l-82.933-84.676c-12.492-12.755-12.599-33.326-0.058-46.131l479.942-490.032c6.268-6.399 14.483-9.591 22.7-9.551v0z" />
<glyph unicode="&#xe919;" glyph-name="chevron-wl-left" horiz-adv-x="640" d="M0 448c-0.041-8.217 3.151-16.432 9.551-22.7l490.032-479.942c12.805-12.541 33.376-12.434 46.131 0.058l84.676 82.933c12.826 12.562 12.782 32.721 0.059 45.181l-382.342 374.47 382.342 374.47c12.722 12.46 12.767 32.619-0.059 45.181l-84.676 82.933c-12.755 12.492-33.326 12.599-46.131 0.058l-490.032-479.942c-6.399-6.268-9.591-14.483-9.551-22.7v0z" />
<glyph unicode="&#xe91a;" glyph-name="chevron-wl-right" horiz-adv-x="640" d="M630.449 470.7l-490.032 479.942c-12.805 12.541-33.376 12.434-46.131-0.058l-84.676-82.933c-12.826-12.562-12.782-32.721-0.059-45.181l382.342-374.47-382.342-374.47c-12.722-12.46-12.767-32.619 0.059-45.181l84.676-82.933c12.755-12.492 33.326-12.599 46.131-0.058l490.032 479.942c6.399 6.268 9.591 14.483 9.551 22.7 0.041 8.217-3.151 16.432-9.551 22.7z" />
<glyph unicode="&#xe91b;" glyph-name="chevron-wl-up" d="M512 768c-8.217 0.041-16.432-3.151-22.7-9.551l-479.942-490.032c-12.541-12.805-12.434-33.376 0.058-46.131l82.933-84.676c12.562-12.826 32.721-12.782 45.181-0.059l374.47 382.342 374.47-382.342c12.46-12.722 32.619-12.767 45.181 0.059l82.933 84.676c12.492 12.755 12.599 33.326 0.058 46.131l-479.942 490.032c-6.268 6.399-14.483 9.591-22.7 9.551v0z" />
<glyph unicode="&#xe91c;" glyph-name="cog" d="M891.582 486.883l98.712 54.088c36.529 20.013 44.63 71.603 18.074 115.363l-58.042 95.35c-26.595 43.651-77.758 62.866-114.326 42.817l-99.477-54.486c-21.971 15.118-45.127 28.859-70.231 39.373v108.103c0 40.025-43.102 72.51-96.252 72.51h-116.045c-53.189 0-96.291-32.484-96.291-72.51v-108.103c-25.104-10.514-48.26-24.254-70.231-39.409l-99.477 54.523c-36.529 20.049-87.731 0.87-114.288-42.817l-58.080-95.35c-26.556-43.687-18.456-95.35 18.112-115.327l98.674-54.088c-1.452-12.834-1.452-64.969 0.038-77.803l-98.674-54.088c-36.567-20.013-44.668-71.676-18.074-115.327l58.042-95.387c26.556-43.651 77.758-62.866 114.288-42.817l99.553 54.523c21.933-15.118 45.050-28.786 70.116-39.3v-108.211c0-40.025 43.102-72.51 96.291-72.51h116.045c53.151 0 96.252 32.484 96.252 72.51v108.284c25.066 10.441 48.184 24.146 70.078 39.264l99.591-54.523c36.529-20.049 87.731-0.906 114.288 42.781l58.080 95.35c26.556 43.687 18.456 95.35-18.074 115.327l-98.674 54.051c1.452 12.907 1.452 65.005 0 77.839zM512.019 294.4c-84.837 0-153.619 68.774-153.619 153.6s68.782 153.6 153.619 153.6c84.799 0 153.581-68.774 153.581-153.6s-68.782-153.6-153.581-153.6v0z" />
<glyph unicode="&#xe91d;" glyph-name="comment-sms" d="M784-64v256c132.52 0 240 107.44 240 239.96v288.040c0 132.52-107.48 240-240 240h-544c-132.56 0-240-107.48-240-240v-328c0-132.6 107.44-200 240-200h191.96l352.040-256zM319.81 640c-35.241 0-63.81 28.407-63.81 64v0c0 35.346 28.624 64 63.81 64h384.38c35.241 0 63.81-28.407 63.81-64v0c0-35.346-28.624-64-63.81-64h-384.38zM647.733 528c35.494 0 64.267-28.45 64.267-63.999v-16.002c0-35.346-28.767-63.999-64.267-63.999h-271.466c-35.494 0-64.267 28.45-64.267 63.999v16.002c0 35.346 28.767 63.999 64.267 63.999h271.466z" />
<glyph unicode="&#xe934;" glyph-name="plus" d="M576 512v383.944c0 35.599-28.654 64.056-64 64.056-35.593 0-64-28.679-64-64.056v-383.944h-383.944c-35.599 0-64.056-28.654-64.056-64 0-35.593 28.679-64 64.056-64h383.944v-383.944c0-35.599 28.654-64.056 64-64.056 35.593 0 64 28.679 64 64.056v383.944h383.944c35.599 0 64.056 28.654 64.056 64 0 35.593-28.679 64-64.056 64h-383.944z" />
<glyph unicode="&#xe937;" glyph-name="phone" d="M125.343-44.367c26.153-26.178 68.612-26.178 94.798 0l142.197 189.485c21.707 32.054 26.153 68.564 0 94.742l-58.038 58.001c43.018 57.77 94.666 120.755 152.804 178.855 65.746 65.693 138.87 125.41 204.617 174.465l56.095-56.020c26.154-26.178 62.683-21.754 94.798 0l189.596 142.114c31.786 21.953 26.186 68.565 0 94.742l-94.798 94.709c-52.373 52.356-120.458 35.586-189.596 0 0 0-209.261-117.388-388.416-296.442-168.515-168.424-298.855-390.425-298.855-390.425-27.175-74.705-52.373-137.162 0-189.485l94.798-94.742z" />
<glyph unicode="&#xe93e;" glyph-name="times" d="M772.581 85.117l-260.646 260.607-260.646-260.607c-30.113-30.225-77.432-31.698-105.704-3.558-28.194 28.297-26.655 75.684 3.458 105.682l260.646 260.756-260.646 260.682c-30.191 30.225-31.574 77.541-3.38 105.682 28.272 28.219 75.513 26.746 105.626-3.323l260.646-260.756 260.646 260.756c30.113 30.074 77.432 31.541 105.704 3.323 28.194-28.219 26.733-75.527-3.458-105.682l-260.646-260.682 260.646-260.756c30.113-29.998 31.652-77.306 3.381-105.603-28.116-28.14-75.513-26.746-105.626 3.479z" />
<glyph unicode="&#xe949;" glyph-name="block" d="M868.005 628.464c12.569-11.146 13.653-30.337 2.823-42.416l-172.028-191.866c-11.010-12.279-30.064-13.074-42.489-1.838l-333.574 301.647c-12.456 11.264-13.596 30.397-2.564 42.713l168.504 188.116c11.040 12.325 30.211 13.254 42.748 2.135l336.579-298.491zM701.216 205.282c12.569-11.146 13.653-30.337 2.823-42.416l-172.027-191.866c-11.010-12.279-30.064-13.074-42.489-1.838l-333.574 301.647c-12.456 11.264-13.596 30.397-2.564 42.713l168.505 188.116c11.040 12.325 30.211 13.254 42.748 2.135l336.579-298.491z" />
<glyph unicode="&#xe94a;" glyph-name="check" d="M181.258 451.848c-11.762 11.762-30.734 11.859-42.593 0l-108.281-108.281c-11.762-11.762-11.935-30.658-0.078-42.515l259.312-259.312c11.719-11.719 30.639-11.798 42.675 0.238l661.169 661.169c11.85 11.85 12.018 30.894 0.16 42.753l-108.281 108.281c-11.762 11.762-30.899 11.695-42.644-0.051l-531.859-531.859-129.578 129.578z" />
<glyph unicode="&#xe950;" glyph-name="check-circle" d="M512-64c-282.77 0-512 229.23-512 512s229.23 512 512 512c282.77 0 512-229.23 512-512s-229.23-512-512-512zM319.996 440.204c-12.493 12.493-32.66 12.583-45.243 0l-45.329-45.329c-12.493-12.493-12.363-32.879-0.046-45.197l135.991-135.991c12.468-12.468 32.607-12.544 45.3 0.149l377.217 377.217c12.55 12.55 12.686 32.763 0.103 45.346l-45.329 45.329c-12.493 12.493-32.924 12.318-45.447-0.205l-309.268-309.268-67.95 67.95z" />
<glyph unicode="&#xe952;" glyph-name="comment" d="M896-64v320h-448l448-320zM0 832.511c0 70.41 57.249 127.489 127.62 127.489h768.76c70.483 0 127.62-57.611 127.62-127.489v-449.022c0-70.41-57.249-127.489-127.62-127.489h-768.76c-70.483 0-127.62 57.611-127.62 127.489v449.022z" />
<glyph unicode="&#xe953;" glyph-name="ellipsis-h" d="M112 336c61.856 0 112 50.144 112 112s-50.144 112-112 112c-61.856 0-112-50.144-112-112s50.144-112 112-112v0zM512.113 337.92c61.326 0 111.040 49.714 111.040 111.040s-49.714 111.040-111.040 111.040c-61.326 0-111.040-49.714-111.040-111.040s49.714-111.040 111.040-111.040v0zM913.185 337.92c61.326 0 111.040 49.714 111.040 111.040s-49.714 111.040-111.040 111.040c-61.326 0-111.040-49.714-111.040-111.040s49.714-111.040 111.040-111.040v0z" />
<glyph unicode="&#xe956;" glyph-name="exclamation" horiz-adv-x="320" d="M0 808.981c0 83.406 71.018 151.019 160 151.019 88.366 0 160-67.955 160-151.019v-290.358c0-83.406-71.018-151.019-160-151.019-88.366 0-160 67.955-160 151.019v290.358zM160-64c88.366 0 160 71.634 160 160s-71.634 160-160 160c-88.366 0-160-71.634-160-160s71.634-160 160-160v0z" />
<glyph unicode="&#xe957;" glyph-name="workflow" d="M512 128h256c0 0 64 0 64 64v256h-128v-192h-192v-128zM512 768h-256c0 0-64 0-64-64v-256h128v192h192v128zM512 832.122c0 70.625 56.749 127.878 127.878 127.878h256.243c70.625 0 127.878-56.749 127.878-127.878v-256.243c0-70.625-56.749-127.878-127.878-127.878h-256.243c-70.625 0-127.878 56.749-127.878 127.878v256.243zM0 320.122c0 70.625 56.749 127.878 127.878 127.878h256.243c70.625 0 127.878-56.749 127.878-127.878v-256.243c0-70.625-56.749-127.878-127.878-127.878h-256.243c-70.625 0-127.878 56.749-127.878 127.878v256.243z" />
<glyph unicode="&#xe958;" glyph-name="clock" d="M576 533.414l141.533-187.82c21.076-27.968 15.474-67.737-12.952-89.157-28.229-21.272-68.483-15.466-89.274 12.125l-154.078 204.469c-0.169 0.222-0.337 0.445-0.504 0.669l-0.193 0.256c-9.675 12.839-13.728 28.165-12.532 43.061v122.384c0 35.677 28.407 64.6 64 64.6 35.346 0 64-28.375 64-64.6v-105.986zM512-64v0c-282.77 0-512 229.23-512 512s229.23 512 512 512c282.77 0 512-229.23 512-512s-229.23-512-512-512zM512 64c212.077 0 384 171.923 384 384s-171.923 384-384 384c-212.077 0-384-171.923-384-384s171.923-384 384-384v0z" />
<glyph unicode="&#xe959;" glyph-name="reassign" d="M34.009 32c0.352 0 0.672 0 1.056 0.032 16.223 0.512 26.398 12.662 27.806 28.265 1.056 11.447 33.949 289.109 482.165 288.822v-177.552c0-11.99 7.135-22.893 18.334-27.977 11.135-5.148 24.446-3.549 33.981 4.061l414.939 332.338c7.423 5.915 11.711 14.676 11.711 23.981-0.032 9.272-4.352 18.033-11.775 23.917l-414.971 329.205c-9.567 7.514-22.75 9.017-33.917 3.933-11.199-5.148-18.302-15.987-18.302-27.913v-173.651c-185.935-5.723-330.946-63.5-424.314-169.143-151.922-171.861-118.005-421.61-116.406-432.001 2.4-15.156 13.887-26.315 29.693-26.315v0 0z" />
<glyph unicode="&#xe95a;" glyph-name="map-marker" d="M160 618.655v0 0c0-188.456 352-682.655 352-682.655s352 494.199 352 682.655c0 188.525-157.626 341.345-352 341.345-194.41 0-352-152.82-352-341.345zM371.2 618.689c0 75.437 63.008 136.572 140.8 136.572 77.757 0 140.8-61.135 140.8-136.572 0-75.369-63.043-136.504-140.8-136.504-77.792 0-140.8 61.135-140.8 136.504v0 0z" />
<glyph unicode="&#xe95b;" glyph-name="email" d="M965.12 129.050c0 0-903.68-2.363-903.68 0-30.83 1.273-56.491 23.192-61.44 52.479v510.165c0 0 471.040-329.001 468.48-326.638 25.395-22.223 64.205-22.223 89.6 0l465.92 326.638v-510.165c-4.021-28.795-28.714-50.803-58.88-52.479v0 0zM69.12 768h885.76l-442.88-312.312-442.88 312.312z" />
<glyph unicode="&#xe95c;" glyph-name="circle" d="M512-64v0c-282.77 0-512 229.23-512 512s229.23 512 512 512c282.77 0 512-229.23 512-512s-229.23-512-512-512zM512 89.6c197.939 0 358.4 160.461 358.4 358.4s-160.461 358.4-358.4 358.4c-197.939 0-358.4-160.461-358.4-358.4s160.461-358.4 358.4-358.4v0z" />
<glyph unicode="&#xe95d;" glyph-name="list" d="M1024 847.899c0 17.729-14.258 32.101-32.011 32.101h-618.645c-17.679 0-32.011-14.551-32.011-32.101v-106.464c0-17.729 14.258-32.101 32.011-32.101h618.645c17.679 0 32.011 14.551 32.011 32.101v106.464zM170.667 847.899c0 17.729-14.551 32.101-32.101 32.101h-106.464c-17.729 0-32.101-14.551-32.101-32.101v-106.464c0-17.729 14.551-32.101 32.101-32.101h106.464c17.729 0 32.101 14.551 32.101 32.101v106.464zM1024 506.566c0 17.729-14.258 32.101-32.011 32.101h-618.645c-17.679 0-32.011-14.551-32.011-32.101v-106.464c0-17.729 14.258-32.101 32.011-32.101h618.645c17.679 0 32.011 14.551 32.011 32.101v106.464zM170.667 506.566c0 17.729-14.551 32.101-32.101 32.101h-106.464c-17.729 0-32.101-14.551-32.101-32.101v-106.464c0-17.729 14.551-32.101 32.101-32.101h106.464c17.729 0 32.101 14.551 32.101 32.101v106.464zM1024 165.232c0 17.729-14.258 32.101-32.011 32.101h-618.645c-17.679 0-32.011-14.551-32.011-32.101v-106.464c0-17.729 14.258-32.101 32.011-32.101h618.645c17.679 0 32.011 14.551 32.011 32.101v106.464zM170.667 165.232c0 17.729-14.551 32.101-32.101 32.101h-106.464c-17.729 0-32.101-14.551-32.101-32.101v-106.464c0-17.729 14.551-32.101 32.101-32.101h106.464c17.729 0 32.101 14.551 32.101 32.101v106.464z" />
<glyph unicode="&#xe95e;" glyph-name="user" horiz-adv-x="896" d="M26.96-64c-46.698 76.709-27.768 230.286 18.93 281.458 22.244 24.386 207.726 74.189 207.726 74.189 33.719 9.504 45.494 41.355 27.175 71.552 0 0-101.765 145.989-101.765 270.125 0 180.427 48.907 326.676 268.899 326.676 220.022 0 268.899-146.249 268.899-326.676 0-123.752-101.25-269.586-101.25-269.586-18.616-29.975-6.114-62.044 27.816-71.848 0 0 185.699-50.622 207.286-74.432 46.339-51.171 64.791-204.749 18.452-281.458h-842.168z" />
<glyph unicode="&#xe960;" glyph-name="search" d="M1024 71.894l-135.894-135.894-274.587 274.587c-174.764-106.008-401.171-64.782-527.351 96.025s-112.371 390.523 32.163 535.057c144.534 144.534 374.25 158.343 535.057 32.163s202.034-352.587 96.025-527.351l274.587-274.587zM403.805 807.018c-138.517-0.038-250.78-112.352-250.755-250.869s112.329-250.79 250.846-250.778c138.517 0.013 250.8 112.306 250.8 250.823 0 66.534-26.435 130.342-73.489 177.383s-110.869 73.458-177.403 73.44v0z" />
<glyph unicode="&#xe964;" glyph-name="activity" d="M1023.924 238.994c2.049-52.249-37.766-96.858-90.398-101.282s-99.475 32.902-106.354 84.745l-1.401-0.427-115.648 310.689-176.112-497.027c-12.526-39.302-48.811-66.448-90.425-67.65s-79.436 23.803-94.256 62.315h-2.533l-148.628 355.499h-0.269c-1.912-52.93-45.338-95.121-98.834-96.023-55.707 1.022-100.041 46.533-99.050 101.678-0.070 20.027 5.713 39.647 16.652 56.494v0l115.486 203.356c17.704 28.178 48.849 45.311 82.371 45.311s64.667-17.133 82.371-45.311v0l0.97-1.28c5.375-8.523 9.46-17.779 12.125-27.473l119.42-270.626 170.669 491.426h1.509c6.517 48.425 48.244 84.593 97.595 84.593s91.078-36.168 97.595-84.593h1.455l220.302-564.884-2.048-0.587c4.967-12.392 7.491-25.611 7.437-38.943v0z" />
<glyph unicode="&#xe965;" glyph-name="cards" horiz-adv-x="832" d="M704 128h64.157c35.279 0 63.843 28.611 63.843 63.904v704.192c0 35.265-28.583 63.904-63.843 63.904h-448.314c-35.279 0-63.843-28.611-63.843-63.904v-64.096h384.157c35.259 0 63.843-28.639 63.843-63.904v-640.096zM0 704.096c0 35.293 28.564 63.904 63.843 63.904h448.314c35.259 0 63.843-28.639 63.843-63.904v-704.192c0-35.293-28.564-63.904-63.843-63.904h-448.314c-35.259 0-63.843 28.639-63.843 63.904v704.192z" />
<glyph unicode="&#xe966;" glyph-name="arrows-alt" d="M897.207 622.74v120.203l-118.092-117.964c0 0-45.1-45.036-90.201 0-45.1 45.1 0 90.201 0 90.201l118.092 118.028h-120.331c-34.289 0-62.245 27.892-62.245 62.245 0.064 34.417 27.892 62.245 62.309 62.309h262.221c3.582 0.704 6.845 2.239 10.555 2.239 1.215 0 1.983-1.279 3.199-1.407 14.138-0.704 27.828-6.077 39.023-16.121 2.239-1.535 2.559-1.599 2.879-1.855 1.343-1.663 1.343-2.879 2.175-3.838 8.252-9.596 12.283-20.855 13.626-32.754 0.512-3.135 3.582-5.246 3.518-8.508 0-3.838-1.471-7.165-2.111-10.747l-0.064-262.029c0-34.417-27.828-62.309-62.309-62.309-34.353 0-62.245 27.892-62.245 62.309v0zM126.857 622.74l-0.064 120.203 118.156-117.964c0 0 45.1-45.036 90.137 0 45.1 45.1 0 90.201 0 90.201l-118.028 118.028h120.267c34.353 0 62.245 27.892 62.245 62.245 0 34.417-27.892 62.245-62.309 62.309h-262.221c-3.582 0.704-6.781 2.239-10.491 2.239-1.279 0-1.983-1.279-3.263-1.343-14.138-0.768-27.764-6.141-38.959-16.185-2.303-1.535-2.623-1.599-2.879-1.855-1.343-1.663-1.407-2.879-2.239-3.838-8.188-9.596-12.219-20.855-13.562-32.754-0.576-3.135-3.582-5.31-3.582-8.508 0.064-3.838 1.471-7.165 2.175-10.747v-262.029c0-34.417 27.892-62.309 62.309-62.309s62.245 27.892 62.309 62.309v0zM897.207 273.26v-120.203l-118.092 117.964c0 0-45.1 45.036-90.201 0-45.1-45.1 0-90.201 0-90.201l118.092-118.028h-120.331c-34.353 0-62.245-27.892-62.245-62.245 0.064-34.417 27.892-62.245 62.309-62.309h262.285c3.518-0.704 6.781-2.239 10.491-2.239 1.215 0 1.983 1.279 3.199 1.343 14.138 0.768 27.828 6.141 39.023 16.185 2.239 1.535 2.559 1.599 2.879 1.855 1.343 1.663 1.407 2.879 2.175 3.838 8.252 9.596 12.283 20.855 13.626 32.754 0.512 3.135 3.582 5.246 3.582 8.508-0.064 3.838-1.535 7.165-2.175 10.747l-0.064 262.029c0 34.417-27.828 62.309-62.309 62.309-34.353 0-62.245-27.892-62.245-62.309v0zM337.324 62.857l-120.267-0.064 117.964 118.092c0 0 45.1 45.1 0 90.201s-90.201 0-90.201 0l-118.028-118.092v120.331c0 34.353-27.892 62.245-62.245 62.245-34.417-0.064-62.245-27.892-62.309-62.309v-262.221c-0.704-3.582-2.239-6.781-2.239-10.491 0-1.279 1.279-1.983 1.407-3.263 0.704-14.138 6.077-27.764 16.121-38.959 1.599-2.303 1.599-2.623 1.855-2.879 1.663-1.343 2.879-1.407 3.838-2.239 9.66-8.188 20.855-12.219 32.754-13.626 3.135-0.512 5.246-3.518 8.508-3.518 3.838 0.064 7.165 1.471 10.747 2.175h262.029c34.417 0 62.309 27.892 62.309 62.309s-27.892 62.245-62.245 62.309v0z" />
<glyph unicode="&#xe967;" glyph-name="caret-up" d="M512 800l-512-682.667h1024z" />
<glyph unicode="&#xe968;" glyph-name="caret-right" horiz-adv-x="704" d="M693.333 448l-682.667 512v-1024z" />
<glyph unicode="&#xe969;" glyph-name="caret-down" d="M512 117.333l512 682.667h-1024z" />
<glyph unicode="&#xe96a;" glyph-name="caret-left" horiz-adv-x="704" d="M10.667 448l682.667-512v1024z" />
<glyph unicode="&#xe97b;" glyph-name="spinner-1" d="M1024 448c-1.278 66.862-15.784 133.516-42.576 194.462-26.704 61-65.462 116.258-113.042 161.92-47.552 45.696-103.944 81.82-164.984 105.652-61.004 23.924-126.596 35.352-191.398 33.966-64.81-1.282-129.332-15.374-188.334-41.356-59.048-25.896-112.542-63.47-156.734-109.576-44.224-46.082-79.16-100.708-102.186-159.798-23.114-59.062-34.128-122.52-32.746-185.27 1.286-62.76 14.964-125.148 40.134-182.206 25.088-57.1 61.476-108.828 106.11-151.548 44.61-42.754 97.472-76.504 154.614-98.72 57.118-22.304 118.446-32.902 179.142-31.526 60.708 1.29 120.962 14.554 176.076 38.914 55.15 24.282 105.116 59.48 146.366 102.644 41.282 43.14 73.844 94.236 95.254 149.43 13.034 33.458 21.88 68.4 26.542 103.798 1.246-0.072 2.498-0.12 3.762-0.12 35.346 0 64 28.652 64 64 0 1.796-0.094 3.572-0.238 5.332h0.238zM922.306 278.052c-23.472-53.202-57.484-101.4-99.178-141.18-41.67-39.81-91-71.186-144.244-91.79-53.228-20.678-110.29-30.452-166.884-29.082-56.604 1.298-112.596 13.736-163.82 36.474-51.25 22.666-97.684 55.49-135.994 95.712-38.338 40.198-68.528 87.764-88.322 139.058-19.87 51.284-29.228 106.214-27.864 160.756 1.302 54.552 13.328 108.412 35.254 157.69 21.858 49.3 53.498 93.97 92.246 130.81 38.73 36.868 84.53 65.87 133.874 84.856 49.338 19.060 102.136 28.006 154.626 26.644 52.5-1.306 104.228-12.918 151.562-34.034 47.352-21.050 90.256-51.502 125.624-88.782 35.396-37.258 63.21-81.294 81.39-128.688 18.248-47.392 26.782-98.058 25.424-148.496h0.238c-0.144-1.76-0.238-3.536-0.238-5.332 0-33.012 24.992-60.174 57.086-63.624-6.224-34.822-16.53-68.818-30.78-100.992z" />
<glyph unicode="&#xe981;" glyph-name="spinner-2" d="M512-64c-136.76 0-265.334 53.258-362.040 149.96-96.702 96.706-149.96 225.28-149.96 362.040 0 96.838 27.182 191.134 78.606 272.692 50 79.296 120.664 143.372 204.356 185.3l43-85.832c-68.038-34.084-125.492-86.186-166.15-150.67-41.746-66.208-63.812-142.798-63.812-221.49 0-229.382 186.618-416 416-416s416 186.618 416 416c0 78.692-22.066 155.282-63.81 221.49-40.66 64.484-98.114 116.584-166.15 150.67l43 85.832c83.692-41.928 154.358-106.004 204.356-185.3 51.422-81.558 78.604-175.854 78.604-272.692 0-136.76-53.258-265.334-149.96-362.040-96.706-96.702-225.28-149.96-362.040-149.96z" />
<glyph unicode="&#xe982;" glyph-name="spinner-3" d="M512 960c-278.748 0-505.458-222.762-511.848-499.974 5.92 241.864 189.832 435.974 415.848 435.974 229.75 0 416-200.576 416-448 0-53.020 42.98-96 96-96s96 42.98 96 96c0 282.77-229.23 512-512 512zM512-64c278.748 0 505.458 222.762 511.848 499.974-5.92-241.864-189.832-435.974-415.848-435.974-229.75 0-416 200.576-416 448 0 53.020-42.98 96-96 96s-96-42.98-96-96c0-282.77 229.23-512 512-512z" />
<glyph unicode="&#xe983;" glyph-name="spinner-4" d="M0.042 446.382l-0.022-0.004c0 0 0.012-0.090 0.028-0.222 0.11-3.878 0.55-7.676 1.322-11.352 0.204-1.746 0.428-3.66 0.674-5.774 0.222-1.886 0.46-3.914 0.718-6.078 0.374-2.566 0.77-5.292 1.19-8.176 0.856-5.746 1.8-12.124 2.908-18.958 1.348-6.446 2.804-13.414 4.364-20.864 0.71-3.718 1.776-7.504 2.786-11.406 1.024-3.89 2.078-7.894 3.16-12.004 0.566-2.042 1.040-4.132 1.708-6.208 0.656-2.074 1.32-4.176 1.988-6.3 1.348-4.234 2.726-8.566 4.136-12.988 0.352-1.106 0.708-2.21 1.064-3.324 0.408-1.102 0.814-2.208 1.226-3.316 0.826-2.218 1.658-4.458 2.502-6.714 1.696-4.496 3.422-9.078 5.18-13.742 1.968-4.566 3.97-9.214 6.004-13.934 1.018-2.348 2.044-4.714 3.078-7.098 1.048-2.376 2.27-4.704 3.408-7.074 2.322-4.714 4.678-9.496 7.062-14.332 2.47-4.786 5.208-9.512 7.846-14.328 1.336-2.398 2.68-4.808 4.028-7.23 1.368-2.41 2.902-4.75 4.356-7.14 2.95-4.738 5.93-9.524 8.934-14.348 12.64-18.894 26.676-37.566 42.21-55.278 15.712-17.578 32.726-34.25 50.692-49.602 18.18-15.136 37.264-28.902 56.726-41.114 19.604-12.036 39.644-22.312 59.376-31.144 5.004-2.040 9.964-4.062 14.878-6.066 2.462-0.972 4.868-2.032 7.336-2.918 2.47-0.868 4.93-1.734 7.376-2.594 4.898-1.684 9.678-3.468 14.484-4.992 4.832-1.43 9.604-2.844 14.312-4.242 2.356-0.672 4.66-1.426 7.004-2.012 2.346-0.574 4.676-1.14 6.986-1.704 4.606-1.118 9.142-2.214 13.604-3.296 4.5-0.868 8.926-1.722 13.27-2.558 2.166-0.41 4.31-0.82 6.434-1.222 1.062-0.2 2.118-0.398 3.166-0.598 1.060-0.148 2.118-0.292 3.166-0.442 4.192-0.582 8.292-1.152 12.3-1.71 1.998-0.274 3.972-0.546 5.922-0.816 1.946-0.286 3.904-0.378 5.814-0.57 3.822-0.336 7.544-0.664 11.164-0.98 3.616-0.304 7.104-0.688 10.526-0.738 0.23-0.008 0.452-0.016 0.682-0.026 0.614-34.812 29.008-62.846 63.968-62.846 0.542 0 1.080 0.028 1.62 0.042v-0.022c0 0 0.090 0.012 0.224 0.028 3.878 0.11 7.674 0.55 11.35 1.322 1.748 0.204 3.662 0.426 5.776 0.672 1.884 0.222 3.912 0.462 6.076 0.718 2.566 0.376 5.292 0.772 8.176 1.192 5.746 0.856 12.124 1.8 18.958 2.908 6.446 1.348 13.414 2.804 20.864 4.362 3.718 0.712 7.504 1.778 11.406 2.786 3.892 1.026 7.894 2.080 12.004 3.162 2.044 0.566 4.132 1.040 6.208 1.708 2.074 0.656 4.174 1.318 6.3 1.988 4.232 1.348 8.564 2.726 12.988 4.134 1.104 0.354 2.21 0.708 3.324 1.066 1.1 0.406 2.206 0.814 3.316 1.226 2.216 0.824 4.456 1.658 6.714 2.5 4.496 1.698 9.078 3.424 13.74 5.182 4.568 1.968 9.216 3.97 13.936 6.004 2.348 1.018 4.714 2.044 7.098 3.078 2.376 1.048 4.702 2.27 7.074 3.408 4.714 2.322 9.494 4.678 14.33 7.062 4.786 2.47 9.512 5.208 14.328 7.846 2.398 1.336 4.808 2.678 7.23 4.028 2.41 1.366 4.75 2.9 7.14 4.354 4.738 2.952 9.524 5.93 14.35 8.936 18.89 12.64 37.564 26.674 55.278 42.21 17.574 15.712 34.248 32.726 49.602 50.69 15.136 18.182 28.902 37.264 41.112 56.728 12.036 19.602 22.314 39.644 31.142 59.376 2.042 5.002 4.062 9.964 6.068 14.878 0.974 2.462 2.032 4.868 2.918 7.334 0.87 2.472 1.732 4.932 2.592 7.376 1.686 4.898 3.468 9.678 4.994 14.484 1.432 4.832 2.846 9.604 4.24 14.31 0.674 2.358 1.43 4.66 2.016 7.004 0.57 2.348 1.138 4.676 1.702 6.988 1.118 4.606 2.216 9.14 3.296 13.602 0.868 4.502 1.72 8.928 2.558 13.272 0.41 2.164 0.818 4.308 1.222 6.434 0.2 1.060 0.398 2.116 0.596 3.164 0.148 1.062 0.296 2.118 0.444 3.168 0.582 4.19 1.152 8.292 1.708 12.3 0.278 1.996 0.55 3.97 0.82 5.922 0.284 1.946 0.376 3.902 0.568 5.812 0.336 3.822 0.664 7.546 0.98 11.164 0.304 3.616 0.686 7.106 0.738 10.528 0.020 0.534 0.040 1.044 0.058 1.574 35.224 0.146 63.732 28.738 63.732 63.992 0 0.542-0.028 1.080-0.042 1.62h0.022c0 0-0.012 0.090-0.028 0.224-0.11 3.878-0.55 7.674-1.322 11.35-0.204 1.748-0.428 3.662-0.674 5.776-0.222 1.886-0.46 3.914-0.718 6.076-0.374 2.566-0.77 5.294-1.19 8.176-0.856 5.746-1.8 12.124-2.908 18.958-1.348 6.444-2.804 13.414-4.364 20.862-0.71 3.72-1.776 7.506-2.786 11.408-1.024 3.892-2.078 7.894-3.16 12.002-0.566 2.044-1.040 4.134-1.708 6.208-0.656 2.076-1.32 4.174-1.988 6.3-1.348 4.234-2.726 8.566-4.136 12.99-0.352 1.102-0.708 2.21-1.064 3.324-0.408 1.1-0.814 2.206-1.226 3.316-0.826 2.216-1.658 4.454-2.502 6.714-1.696 4.498-3.422 9.080-5.18 13.74-1.968 4.57-3.97 9.216-6.004 13.936-1.020 2.348-2.044 4.714-3.078 7.098-1.048 2.376-2.27 4.702-3.408 7.076-2.322 4.714-4.678 9.494-7.062 14.33-2.47 4.786-5.208 9.512-7.846 14.328-1.336 2.398-2.68 4.808-4.028 7.23-1.368 2.41-2.902 4.75-4.356 7.14-2.95 4.74-5.93 9.524-8.934 14.35-12.64 18.892-26.676 37.564-42.21 55.278-15.712 17.576-32.726 34.25-50.692 49.602-18.18 15.136-37.264 28.902-56.726 41.112-19.604 12.036-39.644 22.314-59.376 31.142-5.004 2.040-9.964 4.062-14.878 6.068-2.462 0.974-4.868 2.032-7.336 2.918-2.47 0.87-4.93 1.734-7.376 2.592-4.898 1.684-9.678 3.468-14.484 4.994-4.832 1.432-9.604 2.846-14.312 4.242-2.356 0.672-4.66 1.428-7.004 2.014-2.346 0.572-4.676 1.138-6.986 1.702-4.606 1.118-9.142 2.216-13.604 3.298-4.5 0.868-8.926 1.72-13.27 2.558-2.166 0.412-4.31 0.82-6.434 1.222-1.062 0.2-2.118 0.398-3.166 0.596-1.060 0.148-2.118 0.296-3.166 0.442-4.192 0.584-8.292 1.154-12.3 1.71-1.998 0.276-3.972 0.55-5.922 0.82-1.946 0.284-3.904 0.376-5.814 0.57-3.822 0.336-7.544 0.664-11.164 0.98-3.616 0.304-7.104 0.686-10.526 0.738-0.852 0.032-1.674 0.062-2.512 0.092-0.65 34.78-29.028 62.778-63.966 62.778-0.542 0-1.080-0.028-1.62-0.042l-0.002 0.022c0 0-0.090-0.012-0.222-0.028-3.878-0.11-7.676-0.55-11.352-1.322-1.748-0.204-3.662-0.426-5.776-0.672-1.884-0.222-3.912-0.462-6.076-0.718-2.566-0.376-5.292-0.772-8.176-1.192-5.746-0.856-12.124-1.8-18.958-2.908-6.446-1.348-13.414-2.804-20.864-4.362-3.718-0.712-7.504-1.778-11.406-2.786-3.892-1.026-7.894-2.080-12.004-3.162-2.044-0.566-4.132-1.040-6.208-1.708-2.074-0.656-4.174-1.318-6.3-1.988-4.232-1.348-8.564-2.726-12.988-4.134-1.104-0.354-2.21-0.708-3.324-1.066-1.1-0.406-2.206-0.814-3.316-1.226-2.216-0.824-4.456-1.658-6.714-2.5-4.496-1.698-9.078-3.424-13.74-5.182-4.568-1.968-9.216-3.97-13.936-6.004-2.348-1.018-4.714-2.044-7.098-3.078-2.376-1.048-4.702-2.27-7.074-3.408-4.714-2.322-9.494-4.678-14.33-7.062-4.786-2.47-9.512-5.208-14.328-7.846-2.398-1.336-4.808-2.678-7.23-4.028-2.41-1.366-4.75-2.9-7.14-4.354-4.738-2.952-9.524-5.93-14.35-8.936-18.89-12.64-37.564-26.674-55.278-42.21-17.574-15.712-34.248-32.726-49.602-50.69-15.136-18.182-28.902-37.264-41.112-56.728-12.036-19.602-22.314-39.644-31.142-59.376-2.042-5.002-4.062-9.964-6.068-14.878-0.974-2.462-2.032-4.868-2.918-7.334-0.87-2.472-1.732-4.932-2.592-7.376-1.686-4.898-3.468-9.678-4.994-14.484-1.432-4.832-2.846-9.604-4.24-14.31-0.674-2.358-1.43-4.66-2.016-7.004-0.57-2.348-1.138-4.676-1.702-6.988-1.118-4.606-2.216-9.14-3.296-13.602-0.868-4.502-1.72-8.928-2.558-13.272-0.41-2.164-0.818-4.308-1.222-6.434-0.2-1.060-0.398-2.116-0.596-3.164-0.148-1.062-0.296-2.118-0.444-3.168-0.582-4.19-1.152-8.292-1.708-12.3-0.278-1.996-0.55-3.97-0.82-5.922-0.284-1.946-0.376-3.902-0.568-5.812-0.336-3.822-0.664-7.546-0.98-11.164-0.304-3.616-0.686-7.106-0.738-10.528-0.020-0.548-0.040-1.076-0.058-1.62-34.376-1.112-61.902-29.304-61.902-63.946 0-0.542 0.028-1.078 0.042-1.618zM73.518 511.294c0.042 0.196 0.086 0.384 0.128 0.58 0.644 3.248 1.632 6.542 2.556 9.942 0.934 3.388 1.894 6.876 2.88 10.454 0.516 1.78 0.934 3.602 1.546 5.406 0.596 1.802 1.202 3.628 1.81 5.476 1.218 3.682 2.464 7.45 3.736 11.294 0.316 0.958 0.634 1.924 0.956 2.892 0.37 0.954 0.74 1.914 1.114 2.876 0.746 1.924 1.5 3.868 2.26 5.83 1.52 3.904 3.070 7.882 4.646 11.93 1.768 3.96 3.566 7.99 5.392 12.080 0.908 2.038 1.824 4.090 2.746 6.156 0.932 2.060 2.036 4.072 3.052 6.126 2.070 4.084 4.17 8.222 6.294 12.412 2.202 4.142 4.654 8.224 6.998 12.392 1.184 2.074 2.374 4.16 3.57 6.256 1.21 2.086 2.586 4.102 3.876 6.166 2.616 4.098 5.256 8.232 7.918 12.402 11.234 16.298 23.632 32.398 37.33 47.638 13.874 15.104 28.842 29.404 44.598 42.548 15.974 12.928 32.686 24.65 49.676 35.022 17.13 10.194 34.6 18.838 51.734 26.258 4.35 1.7 8.662 3.382 12.934 5.050 2.136 0.812 4.216 1.71 6.36 2.444 2.146 0.714 4.28 1.428 6.404 2.136 4.25 1.386 8.382 2.888 12.548 4.142 4.184 1.174 8.314 2.332 12.392 3.474 2.038 0.55 4.026 1.19 6.054 1.662 2.030 0.458 4.044 0.914 6.044 1.368 3.978 0.91 7.896 1.806 11.748 2.688 3.888 0.686 7.71 1.36 11.462 2.022 1.868 0.33 3.716 0.658 5.546 0.98 0.914 0.162 1.824 0.324 2.728 0.484 0.916 0.112 1.828 0.222 2.734 0.332 3.612 0.448 7.148 0.882 10.604 1.31 1.72 0.216 3.422 0.432 5.102 0.644 1.674 0.226 3.364 0.266 5.010 0.408 3.292 0.238 6.498 0.472 9.616 0.7 3.11 0.218 6.11 0.524 9.058 0.508 5.848 0.132 11.32 0.256 16.38 0.372 4.664-0.168 8.948-0.324 12.818-0.462 1.914-0.054 3.726-0.108 5.432-0.156 2.122-0.134 4.108-0.26 5.958-0.378 2.13-0.138 4.060-0.266 5.82-0.38 3.256-0.51 6.592-0.782 9.99-0.782 0.466 0 0.93 0.026 1.396 0.036 0.132-0.008 0.224-0.014 0.224-0.014v0.020c31.14 0.778 56.75 23.784 61.556 53.754 0.542-0.12 1.064-0.236 1.612-0.356 3.246-0.644 6.542-1.632 9.942-2.556 3.386-0.934 6.876-1.894 10.454-2.88 1.778-0.516 3.602-0.934 5.404-1.546 1.802-0.596 3.63-1.202 5.478-1.812 3.68-1.218 7.448-2.464 11.292-3.736 0.96-0.316 1.924-0.634 2.892-0.956 0.956-0.37 1.914-0.74 2.876-1.112 1.926-0.746 3.868-1.5 5.83-2.26 3.904-1.52 7.884-3.070 11.932-4.646 3.96-1.768 7.988-3.566 12.080-5.392 2.038-0.908 4.088-1.824 6.156-2.746 2.060-0.932 4.072-2.036 6.126-3.054 4.082-2.070 8.222-4.17 12.41-6.294 4.144-2.202 8.226-4.654 12.394-6.998 2.074-1.184 4.16-2.374 6.256-3.572 2.086-1.21 4.102-2.586 6.166-3.876 4.098-2.616 8.23-5.256 12.402-7.918 16.296-11.234 32.398-23.632 47.636-37.33 15.104-13.874 29.406-28.842 42.55-44.598 12.928-15.974 24.648-32.686 35.020-49.676 10.196-17.13 18.84-34.6 26.26-51.736 1.698-4.348 3.382-8.662 5.050-12.932 0.812-2.136 1.71-4.216 2.444-6.36 0.714-2.146 1.428-4.28 2.136-6.404 1.386-4.25 2.888-8.384 4.142-12.548 1.174-4.184 2.33-8.316 3.474-12.392 0.55-2.038 1.19-4.026 1.66-6.054 0.46-2.030 0.916-4.046 1.368-6.046 0.91-3.978 1.808-7.896 2.688-11.748 0.688-3.888 1.362-7.71 2.024-11.462 0.33-1.868 0.656-3.716 0.98-5.548 0.162-0.914 0.324-1.824 0.484-2.728 0.11-0.916 0.222-1.828 0.332-2.734 0.446-3.612 0.882-7.148 1.31-10.604 0.216-1.72 0.432-3.42 0.642-5.1 0.226-1.674 0.268-3.364 0.41-5.010 0.238-3.292 0.472-6.498 0.7-9.616 0.218-3.11 0.524-6.11 0.508-9.058 0.132-5.848 0.256-11.32 0.372-16.38-0.168-4.664-0.324-8.948-0.462-12.818-0.054-1.914-0.108-3.726-0.156-5.432-0.134-2.122-0.26-4.108-0.378-5.958-0.138-2.13-0.266-4.060-0.38-5.82-0.498-3.256-0.768-6.592-0.768-9.99 0-0.468 0.026-0.93 0.036-1.396-0.008-0.132-0.016-0.224-0.016-0.224h0.022c0.768-30.766 23.236-56.128 52.682-61.37-0.066-0.296-0.13-0.584-0.198-0.884-0.644-3.248-1.632-6.542-2.556-9.942-0.934-3.388-1.894-6.876-2.88-10.454-0.516-1.78-0.934-3.602-1.546-5.406-0.596-1.802-1.202-3.628-1.81-5.476-1.218-3.682-2.464-7.45-3.736-11.294-0.316-0.958-0.634-1.924-0.956-2.892-0.37-0.954-0.74-1.914-1.114-2.876-0.746-1.924-1.5-3.868-2.26-5.83-1.52-3.904-3.070-7.882-4.646-11.93-1.768-3.96-3.566-7.99-5.392-12.080-0.908-2.038-1.824-4.090-2.746-6.156-0.932-2.060-2.036-4.072-3.052-6.126-2.070-4.084-4.17-8.222-6.294-12.412-2.202-4.142-4.654-8.224-6.998-12.392-1.184-2.074-2.374-4.16-3.57-6.256-1.21-2.086-2.586-4.102-3.876-6.166-2.616-4.098-5.256-8.232-7.918-12.402-11.234-16.298-23.632-32.398-37.33-47.638-13.874-15.104-28.842-29.404-44.598-42.548-15.974-12.928-32.686-24.65-49.676-35.022-17.13-10.194-34.6-18.838-51.734-26.258-4.35-1.7-8.662-3.382-12.934-5.050-2.136-0.812-4.216-1.71-6.36-2.444-2.146-0.714-4.28-1.428-6.404-2.136-4.25-1.386-8.382-2.888-12.548-4.142-4.184-1.174-8.314-2.332-12.392-3.474-2.038-0.55-4.026-1.19-6.054-1.662-2.030-0.458-4.044-0.914-6.044-1.368-3.978-0.91-7.896-1.806-11.748-2.688-3.888-0.686-7.71-1.36-11.462-2.022-1.868-0.33-3.716-0.658-5.546-0.98-0.914-0.162-1.824-0.324-2.728-0.484-0.916-0.112-1.828-0.222-2.734-0.332-3.612-0.448-7.148-0.882-10.604-1.31-1.72-0.216-3.422-0.432-5.102-0.644-1.674-0.226-3.364-0.266-5.010-0.408-3.292-0.238-6.498-0.472-9.616-0.7-3.11-0.218-6.11-0.524-9.058-0.508-5.848-0.132-11.32-0.256-16.38-0.372-4.664 0.168-8.948 0.324-12.818 0.462-1.914 0.054-3.726 0.108-5.432 0.156-2.122 0.134-4.108 0.26-5.958 0.378-2.13 0.138-4.060 0.266-5.82 0.38-3.256 0.51-6.592 0.782-9.99 0.782-0.466 0-0.93-0.026-1.396-0.036-0.132 0.008-0.224 0.014-0.224 0.014v-0.020c-31.004-0.774-56.524-23.586-61.488-53.364-3.2 0.64-6.446 1.61-9.792 2.522-3.386 0.934-6.876 1.894-10.454 2.878-1.778 0.516-3.602 0.938-5.404 1.546-1.802 0.598-3.63 1.204-5.478 1.812-3.68 1.218-7.448 2.464-11.292 3.738-0.96 0.316-1.924 0.632-2.892 0.954-0.956 0.372-1.914 0.742-2.876 1.114-1.926 0.746-3.868 1.5-5.83 2.258-3.904 1.524-7.884 3.070-11.932 4.648-3.96 1.77-7.988 3.566-12.080 5.39-2.038 0.91-4.088 1.824-6.156 2.746-2.060 0.934-4.072 2.036-6.126 3.054-4.082 2.070-8.222 4.172-12.41 6.296-4.144 2.2-8.226 4.652-12.394 6.996-2.074 1.184-4.16 2.376-6.256 3.57-2.086 1.21-4.102 2.586-6.166 3.878-4.098 2.614-8.23 5.254-12.402 7.918-16.296 11.23-32.398 23.632-47.636 37.328-15.104 13.876-29.406 28.84-42.55 44.598-12.928 15.972-24.648 32.684-35.020 49.676-10.196 17.128-18.84 34.602-26.26 51.734-1.698 4.352-3.382 8.664-5.050 12.934-0.812 2.136-1.71 4.218-2.444 6.36-0.714 2.148-1.428 4.282-2.136 6.406-1.386 4.25-2.888 8.382-4.142 12.546-1.174 4.184-2.33 8.316-3.474 12.394-0.55 2.036-1.19 4.024-1.66 6.054-0.46 2.028-0.916 4.042-1.368 6.042-0.91 3.98-1.808 7.898-2.688 11.75-0.688 3.886-1.362 7.71-2.024 11.46-0.33 1.868-0.656 3.718-0.98 5.546-0.162 0.914-0.324 1.824-0.484 2.73-0.11 0.914-0.222 1.828-0.332 2.734-0.446 3.61-0.882 7.148-1.31 10.602-0.216 1.722-0.432 3.422-0.642 5.102-0.226 1.676-0.268 3.364-0.41 5.012-0.238 3.29-0.472 6.496-0.7 9.614-0.218 3.11-0.524 6.11-0.508 9.058-0.132 5.848-0.256 11.32-0.372 16.382 0.168 4.664 0.324 8.946 0.462 12.816 0.054 1.914 0.108 3.726 0.156 5.434 0.134 2.122 0.26 4.106 0.378 5.958 0.138 2.128 0.266 4.058 0.38 5.82 0.496 3.26 0.766 6.596 0.766 9.994 0 0.466-0.026 0.93-0.036 1.396 0.008 0.132 0.016 0.224 0.016 0.224h-0.022c-0.78 31.38-24.134 57.154-54.44 61.674z" />
<glyph unicode="&#xe9cb;" glyph-name="link" d="M440.236 324.234c-13.31 0-26.616 5.076-36.77 15.23-95.134 95.136-95.134 249.934 0 345.070l192 192c46.088 46.086 107.36 71.466 172.534 71.466s126.448-25.38 172.536-71.464c95.132-95.136 95.132-249.934 0-345.070l-87.766-87.766c-20.308-20.308-53.23-20.308-73.54 0-20.306 20.306-20.306 53.232 0 73.54l87.766 87.766c54.584 54.586 54.584 143.404 0 197.99-26.442 26.442-61.6 41.004-98.996 41.004s-72.552-14.562-98.996-41.006l-192-191.998c-54.586-54.586-54.586-143.406 0-197.992 20.308-20.306 20.306-53.232 0-73.54-10.15-10.152-23.462-15.23-36.768-15.23zM256-52c-65.176 0-126.45 25.38-172.534 71.464-95.134 95.136-95.134 249.934 0 345.070l87.764 87.764c20.308 20.306 53.234 20.306 73.54 0 20.308-20.306 20.308-53.232 0-73.54l-87.764-87.764c-54.586-54.586-54.586-143.406 0-197.992 26.44-26.44 61.598-41.002 98.994-41.002s72.552 14.562 98.998 41.006l192 191.998c54.584 54.586 54.584 143.406 0 197.992-20.308 20.308-20.306 53.232 0 73.54 20.306 20.306 53.232 20.306 73.54-0.002 95.132-95.134 95.132-249.932 0.002-345.068l-192.002-192c-46.090-46.088-107.364-71.466-172.538-71.466z" />
</font>
</defs>
</svg>
