<?xml version="1.0" encoding="UTF-8"?>
<svg width="32px" height="32px" viewBox="0 0 32 32" version="1.1" xmlns="http://www.w3.org/2000/svg" xmlns:xlink="http://www.w3.org/1999/xlink">
    <title>Artboard</title>
    <g id="Artboard" stroke="none" stroke-width="1" fill="none" fill-rule="evenodd">
        <path d="M10.0746269,28 C13.4577114,28 15.9577114,27.0392749 17.5746269,25.1178248 C19.1915423,23.1963746 20,20.2175227 20,16.1812689 L20,16.1812689 L20,4 L13.8059701,4 L13.8059701,16.9063444 C13.8059701,19.0090634 13.5012438,20.489426 12.891791,21.347432 C12.2823383,22.2054381 11.3432836,22.6344411 10.0746269,22.6344411 C8.80597015,22.6344411 7.87935323,22.2054381 7.29477612,21.347432 C6.710199,20.489426 6.41791045,19.0090634 6.41791045,16.9063444 L6.41791045,16.9063444 L6.41791045,4 L0,4 L0,16.1812689 C0,20.2175227 0.827114428,23.1963746 2.48134328,25.1178248 C4.13557214,27.0392749 6.66666667,28 10.0746269,28 Z M32,28 L32,4 L26,4 L26,28 L32,28 Z" id="UI" fill="#00AEEF" fill-rule="nonzero"></path>
    </g>
</svg>
