<svg xmlns="http://www.w3.org/2000/svg" xmlns:xlink="http://www.w3.org/1999/xlink" xmlns:sketch="http://www.bohemiancoding.com/sketch/ns" width="107px" height="108px" viewBox="0 0 107 108" version="1.1"><title>Fill 1 Copy</title><desc>Created with Sketch.</desc><g stroke="none" stroke-width="1" fill="none" fill-rule="evenodd" sketch:type="MSPage"><g sketch:type="MSArtboardGroup" transform="translate(-427.000000, -175.000000)" fill="#FFFFFF"><g sketch:type="MSLayerGroup" transform="translate(331.000000, 131.000000)"><path d="M157.519222 53.9708903C159.622424 53.9349338 157.193856 59.2690006 155.997474 59.4362764 154.319271 59.6715569 150.131547 62.3643851 148.903252 65.3886384 148.080497 67.4147083 149.366393 70.0262436 149.845879 71.1682529 156.360981 67.5124161 164.688948 64.7101551 170.407759 64.1512662 170.407759 64.1512662 170.280882 63.9785187 170.167238 63.8245312 163.93469 55.9500604 158.4276 51.150651 148.202703 44 134.907069 53.2986603 129.591462 58.6124038 120.284284 71.893636 121.563953 73.7235085 122.770453 75.3970485 123.929472 76.9541207 144.805821 68.6450455 147.531734 54.1405111 157.519222 53.9708903ZM142.393599 88.778099C149.852885 85.9461347 150.139331 81.3155645 148.535853 75.6156796 139.292503 81.2600664 134.152812 91.9110034 142.393599 88.778099ZM132.277677 86.8341037C134.60272 82.2433982 139.036414 78.5383167 141.377025 76.6849942 142.715073 75.6250595 145.748448 73.4879935 147.599453 72.4014823 147.039793 70.5411249 146.559528 68.8636766 146.284757 67.1494901 141.578627 71.2657263 135.4426 76.1808218 127.079606 81.0138427 128.611472 82.8984316 130.807303 85.419294 132.277677 86.8341037ZM179.785926 66.3249141C176.03332 64.9710741 163.326925 65.8746763 151.10313 73.695994 155.936137 81.2781229 156.442868 85.4795602 153.275609 88.8829199 150.643103 91.7086309 145.388989 93.0061911 140.230616 93.3297994 136.730986 93.55101 132.592301 92.0994622 131.727512 89.3495726 131.968034 90.8284786 132.951916 92.3855508 134.81304 93.5369401 136.416518 94.5257435 138.381946 94.8798367 141.247968 94.7156875 143.323149 96.3157512 145.609272 97.9767846 148.202859 99.7878973 161.499272 90.4876736 166.816436 85.1762751 176.119721 71.8934796 174.977827 70.2637128 173.690375 68.5174781 172.647336 67.1073585 174.645456 66.4054253 177.070911 66.3249141 179.785926 66.3249141ZM98.8613519 121.424323L98.8613519 123.568424C98.8613519 124.231274 98.9493097 125.048893 100.225865 125.048893 101.45883 125.048893 101.656541 124.40793 101.656541 123.126003L101.656541 122.596035C101.656541 121.534537 101.326505 121.071011 100.666432 120.62859L97.9584226 118.816696C97.1006397 118.242174 96.110531 117.423773 96.110531 115.147571L96.110531 114.838032C96.110531 112.119409 97.7171225 110.992251 100.336396 110.992251 102.294819 110.992251 104.319404 111.854425 104.319404 114.351838L104.319404 115.898749 101.480625 115.898749 101.480625 114.528494C101.480625 113.843757 101.30471 113.180907 100.20407 113.180907 99.3898769 113.180907 98.90572 113.489664 98.90572 114.859919 98.90572 115.589992 98.9275148 116.141846 99.8296658 116.760923L102.624855 118.661927C103.769863 119.434991 104.517893 120.496489 104.517893 121.887849L104.517893 123.3691C104.517893 125.513201 103.791657 127.258654 100.313823 127.258654 98.2674424 127.258654 96 126.595804 96 123.700525L96 121.424323 98.8613519 121.424323ZM111.296168 115.280141L110.261691 121.976646 112.242687 121.976646 111.296168 115.280141ZM112.925332 126.926916L112.55015 124.38573 109.90986 124.38573 109.491087 126.926916 106.630514 126.926916 109.645208 111.324145 112.925332 111.324145 115.830274 126.926916 112.925332 126.926916ZM121.156389 124.651183L122.344987 124.651183C123.643337 124.651183 123.995947 124.23143 123.995947 122.97139L123.995947 115.1915C123.995947 113.976015 123.620764 113.600816 122.45474 113.600816L121.156389 113.600816 121.156389 124.651183ZM123.356891 111.323833C125.535597 111.323833 126.834725 112.650314 126.834725 115.103172L126.834725 122.926835C126.834725 126.131652 125.293518 126.927385 122.895307 126.927385L118.295038 126.927385 118.295038 111.323833 123.356891 111.323833ZM132.622424 124.651183L133.811022 124.651183C135.109372 124.651183 135.461981 124.23143 135.461981 122.97139L135.461981 115.1915C135.461981 113.976015 135.087577 113.600816 133.920774 113.600816L132.622424 113.600816 132.622424 124.651183ZM134.823704 111.323833C137.00241 111.323833 138.30076 112.650314 138.30076 115.103172L138.30076 122.926835C138.30076 126.131652 136.760332 126.927385 134.361342 126.927385L129.761851 126.927385 129.761851 111.323833 134.823704 111.323833ZM140.919644 126.927541L140.919644 111.323989 143.780996 111.323989 143.780996 124.563011 147.984288 124.563011 147.984288 126.927541 140.919644 126.927541ZM150.295631 126.927541L150.295631 111.323989 157.822637 111.323989 157.822637 113.689301 153.156983 113.689301 153.156983 117.357644 157.557985 117.357644 157.557985 119.722174 153.156983 119.722174 153.156983 124.518457 158.042142 124.518457 158.042142 126.927541 150.295631 126.927541ZM163.764768 124.673226L164.996955 124.673226C166.031432 124.673226 166.581752 124.584898 166.581752 123.103647L166.581752 121.269866C166.581752 120.076267 166.251716 119.744842 165.129281 119.744842L163.764768 119.744842 163.764768 124.673226ZM163.764768 117.489745L164.865408 117.489745C165.877312 117.489745 166.383263 117.379531 166.383263 116.053831L166.383263 114.926673C166.383263 113.821402 165.899106 113.556418 164.908998 113.556418L163.764768 113.556418 163.764768 117.489745ZM165.965269 111.323989C168.188344 111.323989 169.22282 112.164277 169.22282 114.50692L169.22282 115.89828C169.22282 117.467858 168.826621 118.285478 167.395945 118.529357 169.201026 118.86 169.376941 119.722174 169.376941 121.380081L169.376941 123.634396C169.376941 126.109922 168.496585 126.927541 165.899106 126.927541L160.903416 126.927541 160.903416 111.323989 165.965269 111.323989ZM176.04523 115.280141L175.010753 121.976646 176.991749 121.976646 176.04523 115.280141ZM177.673616 126.926916L177.299212 124.38573 174.658922 124.38573 174.24015 126.926916 171.379576 126.926916 174.39427 111.324145 177.673616 111.324145 180.579336 126.926916 177.673616 126.926916ZM190.703042 121.070855L190.703042 123.656595C190.703042 125.711587 189.624976 127.259279 186.455382 127.259279 185.332948 127.259279 182.229517 127.059955 182.229517 123.966134L182.229517 114.772216C182.229517 112.340463 183.462483 110.992095 186.565913 110.992095 189.008493 110.992095 190.703042 111.987152 190.703042 114.108585L190.703042 117.003863 187.886058 117.003863 187.886058 115.036418C187.886058 113.843601 187.688348 113.202637 186.411793 113.202637 185.311153 113.202637 185.090869 113.887374 185.090869 114.904317L185.090869 123.258729C185.090869 124.274891 185.311153 125.02685 186.49975 125.02685 187.776306 125.02685 187.886058 124.297559 187.886058 123.10396L187.886058 121.070855 190.703042 121.070855ZM199.110482 126.927541L196.073214 119.302421 196.073214 126.927541 193.168273 126.927541 193.168273 111.323989 196.073214 111.323989 196.073214 117.402199 199.176645 111.323989 202.125176 111.323989 198.581957 118.065049 202.213912 126.927541 199.110482 126.927541ZM124.864549 145.811576L124.864549 148.397316C124.864549 150.452308 123.786482 152 120.616889 152 119.494455 152 116.391024 151.800676 116.391024 148.706855L116.391024 139.512937C116.391024 137.081184 117.62399 135.732816 120.72742 135.732816 123.17 135.732816 124.864549 136.727873 124.864549 138.849306L124.864549 141.744584 122.047565 141.744584 122.047565 139.777139C122.047565 138.584322 121.849855 137.943358 120.5733 137.943358 119.47266 137.943358 119.252376 138.628095 119.252376 139.645038L119.252376 147.99945C119.252376 149.015612 119.47266 149.767571 120.661257 149.767571 121.937034 149.767571 122.047565 149.03828 122.047565 147.844681L122.047565 145.811576 124.864549 145.811576ZM133.051861 151.668262L133.051861 144.529336 130.433366 144.529336 130.433366 151.668262 127.572014 151.668262 127.572014 136.06471 130.433366 136.06471 130.433366 142.186693 133.051861 142.186693 133.051861 136.06471 135.913213 136.06471 135.913213 151.668262 133.051861 151.668262ZM141.745046 136.064632L141.745046 147.667634C141.745046 148.684577 141.833004 149.546751 143.087764 149.546751 144.36432 149.546751 144.407909 148.573581 144.407909 147.645748L144.407909 136.064632 147.291056 136.064632 147.291056 148.15461C147.291056 151.977723 144.034283 151.999609 142.999028 151.999609 140.336165 151.999609 138.8619 150.652023 138.8619 148.088169L138.8619 136.064632 141.745046 136.064632ZM152.815505 142.562673L154.312344 142.562673C155.302452 142.562673 155.632489 142.186693 155.632489 141.125977L155.632489 139.579066C155.632489 138.540236 155.214495 138.297139 154.355933 138.297139L152.815505 138.297139 152.815505 142.562673ZM155.676078 136.06471C157.613484 136.06471 158.471267 136.948771 158.471267 138.893548L158.471267 141.037649C158.471267 142.584559 158.141231 143.380292 156.469255 143.68983 158.33972 144.087697 158.581798 145.568166 158.581798 146.408454L158.581798 149.590603C158.581798 149.966582 158.603593 151.336837 159.241871 151.668262L156.094851 151.668262C155.896362 151.247728 155.676078 150.960858 155.676078 150.165125L155.676078 146.518668C155.676078 145.346955 155.478368 144.79432 154.246181 144.79432L152.815505 144.79432 152.815505 151.668262 149.954153 151.668262 149.954153 136.06471 155.676078 136.06471ZM169.673662 145.811576L169.673662 148.397316C169.673662 150.452308 168.595596 152 165.426003 152 164.303568 152 161.200138 151.800676 161.200138 148.706855L161.200138 139.512937C161.200138 137.081184 162.433103 135.732816 165.536534 135.732816 167.979113 135.732816 169.673662 136.727873 169.673662 138.849306L169.673662 141.744584 166.856678 141.744584 166.856678 139.777139C166.856678 138.584322 166.658968 137.943358 165.382413 137.943358 164.281773 137.943358 164.06149 138.628095 164.06149 139.645038L164.06149 147.99945C164.06149 149.015612 164.281773 149.767571 165.469592 149.767571 166.746926 149.767571 166.856678 149.03828 166.856678 147.844681L166.856678 145.811576 169.673662 145.811576ZM177.948932 151.668262L177.948932 144.529336 175.330437 144.529336 175.330437 151.668262 172.469085 151.668262 172.469085 136.06471 175.330437 136.06471 175.330437 142.186693 177.948932 142.186693 177.948932 136.06471 180.810284 136.06471 180.810284 151.668262 177.948932 151.668262Z" sketch:type="MSShapeGroup"/></g></g></g></svg>